<svg width="63" height="72" viewBox="0 0 63 72" fill="none" xmlns="http://www.w3.org/2000/svg">
<path fill-rule="evenodd" clip-rule="evenodd" d="M15.153 20.5403C13.0406 18.02 11.231 12.147 20.8917 8.8169C29.891 5.71477 29.5872 10.9915 27.9337 14.764L30.4161 12.2938C33.7299 9.0756 38.323 5.16027 39.9172 9.11603C42.8366 16.3599 37.8483 29.6199 34.334 35.6587C30.8196 41.6975 29.3067 43.5417 29.3067 43.5417C29.3067 43.5417 30.5936 43.7338 32.5956 44.4155C34.209 45.0567 34.6607 45.2204 35.6852 46.2639C36.3607 47.0317 37.0416 48.5104 37.0416 48.5104C37.0416 48.5104 38.112 51.0322 38.2709 52.1782L40.0574 51.4076L43.4169 49.9996L46.7687 48.4762C47.9914 47.8583 50.4484 46.5875 50.4949 46.4474L52.8762 44.8806C52.8762 44.8806 54.2834 43.855 55.0679 43.1405C55.8523 42.4261 57.1999 41.0583 57.1999 41.0583L58.1054 41.8611C58.1054 41.8611 56.5564 43.5349 55.3759 44.5366C54.1954 45.5383 51.4825 47.4245 50.6076 47.9015C50.6076 47.9015 48.8373 48.9226 46.6312 49.9997C46.6076 50.0112 46.5674 50.0312 46.5127 50.0585C46.224 50.2025 45.5314 50.5478 44.7509 50.9007C44.1679 51.1644 43.536 51.4378 42.988 51.6749C42.4816 51.894 42.0468 52.0821 41.7888 52.2028L38.246 53.6832C38.258 54.7267 38.056 55.8574 37.7204 57.0384C36.5045 61.3174 31.3453 68.5206 24.8473 71.3017C24.0259 71.7084 22.2411 72.18 20.899 71.9076C19.3523 71.5936 18.4312 70.4687 18.0357 69.1141C18.0263 69.0246 18.0148 68.936 18.0032 68.8461C17.9179 68.1894 17.824 67.4653 18.5148 65.8759C18.8415 65.2115 19.8497 63.4629 21.152 62.2336C21.87 61.5009 23.6896 59.94 25.528 58.6125C27.1436 57.5396 30.9566 55.3072 33.4339 54.2511L36.0961 53.1203C36.1563 52.4531 36.1289 51.6595 35.9561 50.5624L35.9492 50.5184C35.8321 49.7724 35.5669 48.0829 34.5394 47.0645C34.0498 46.5791 33.0167 45.9441 33.0167 45.9441C32.168 45.5098 31.5826 45.379 30.6418 45.2204C28.4356 44.8485 25.0652 46.5316 25.0652 46.5316L30.4805 37.9841C30.4805 37.9841 34.5224 31.6009 35.8997 27.0355C36.2702 25.8073 36.707 23.8517 36.707 23.8517C36.707 23.8517 37.6044 20.4662 37.7686 18.2435C37.7965 17.8663 37.8302 17.5186 37.8622 17.1892C37.9915 15.8562 37.9751 14.4203 37.5381 12.9527C37.5381 12.9527 37.1558 11.6057 36.5625 10.9782C35.3779 9.7252 33.7349 10.9176 32.2705 11.9804C32.2297 12.01 32.189 12.0395 32.1485 12.0689C30.209 13.4743 27.8357 15.8492 27.8357 15.8492C25.0861 23.9011 17.4106 43.1444 14.4085 44.9322C13.4676 45.4925 11.9453 45.3561 11.9453 45.3561C11.9453 45.3561 7.72476 45.0138 7.53653 40.4164C7.53653 40.4164 8.73904 42.9972 10.2692 43.3824C12.3933 43.917 14.0573 41.6902 14.8409 40.1435C15.6244 38.5968 17.1924 35.3364 19.5899 30.2506C21.9873 25.1649 25.4395 16.5511 25.4395 16.5511C26.1564 14.6393 27.093 11.2075 26.4218 10.0696C26.4218 10.0696 25.844 9.17749 24.8906 9.11281C22.8099 8.97166 21.9687 9.25516 20.0263 10.0114C18.2149 10.7166 16.3326 12.2938 16.3326 12.2938C16.3326 12.2938 14.9267 13.8184 14.7158 14.6737C14.4589 15.7157 14.4041 16.5276 15.0258 17.4038C15.5009 18.0734 16.7905 18.5519 16.7905 18.5519L15.153 20.5403ZM35.7848 54.7359C35.4523 55.8319 35.1025 56.9848 33.3407 59.6793C32.9052 60.3453 31.8259 61.896 30.9923 62.7704L29.0899 64.8057L27.9636 65.8593L27.2931 66.4681C27.2931 66.4681 26.8866 66.8046 26.6204 67.013C24.811 68.43 23.3343 69.3617 22.4152 69.7054C21.4962 70.049 21.2346 70.0707 20.6089 70.0506C20.288 70.0116 19.5838 69.6704 19.3339 68.6172C19.0841 67.564 19.9823 65.8938 20.4626 65.1903C20.8402 64.6671 21.6859 63.5529 22.0481 63.2815C22.5388 62.7987 23.5543 61.8184 23.6903 61.7601L25.9518 60.0161C26.9353 59.3536 29.0136 58.0359 29.361 57.8526C29.5634 57.7459 29.7592 57.633 29.9705 57.5111C30.3789 57.2757 30.8454 57.0067 31.5297 56.6836L33.5729 55.6272L35.8037 54.6734L35.7848 54.7359Z" fill="#131212"/>
<path d="M31.7895 61.8189C47.9864 61.6641 61.0685 48.5371 61.0685 32.3663C61.0685 16.0993 47.8302 2.91233 31.5 2.91233C15.1698 2.91233 1.93153 16.0993 1.93153 32.3663C1.93153 46.2757 11.6106 57.9331 24.6254 61.0201L23.6917 61.7401C23.6102 61.7751 23.2129 62.1411 22.8019 62.5328C9.63532 58.7727 0 46.6904 0 32.3663C0 15.0367 14.103 0.988281 31.5 0.988281C48.897 0.988281 63 15.0367 63 32.3663C63 49.6959 48.897 63.7443 31.5 63.7443C31.0287 63.7443 30.5597 63.734 30.0934 63.7136L30.9937 62.7505C31.2448 62.4871 31.5182 62.1623 31.7895 61.8189Z" fill="#131212"/>
</svg>
