<svg width="393" height="111" viewBox="0 0 393 111" fill="none" xmlns="http://www.w3.org/2000/svg">
<path d="M35.6699 7.81471C35.6699 11.4804 32.6507 14.4519 28.9264 14.4519C25.2022 14.4519 22.183 11.4804 22.183 7.81471C22.183 4.14902 25.2022 1.17749 28.9264 1.17749C32.6507 1.17749 35.6699 4.14902 35.6699 7.81471Z" fill="#007EA7"/>
<path d="M18.9919 87.7988C18.9919 92.6218 15.0194 96.5315 10.119 96.5315C5.21859 96.5315 1.24609 92.6218 1.24609 87.7988C1.24609 82.9757 5.21859 79.0651 10.119 79.0651C15.0194 79.0651 18.9919 82.9757 18.9919 87.7988Z" fill="#007EA7"/>
<path d="M106.722 16.2129C106.722 21.0361 102.749 24.9461 97.8491 24.9461C92.9491 24.9461 88.9761 21.0361 88.9761 16.2129C88.9761 11.3896 92.9491 7.47961 97.8491 7.47961C102.749 7.47961 106.722 11.3896 106.722 16.2129Z" fill="#007EA7"/>
<path d="M108.624 81.2191C108.624 84.8852 105.605 87.8569 101.88 87.8569C98.1562 87.8569 95.1372 84.8852 95.1372 81.2191C95.1372 77.5539 98.1562 74.5823 101.88 74.5823C105.605 74.5823 108.624 77.5539 108.624 81.2191Z" fill="#007EA7"/>
<path d="M77.7264 104.926C77.7264 107.434 75.6606 109.468 73.1124 109.468C70.5642 109.468 68.4985 107.434 68.4985 104.926C68.4985 102.418 70.5642 100.385 73.1124 100.385C75.6606 100.385 77.7264 102.418 77.7264 104.926Z" fill="#007EA7"/>
<path d="M33.5011 73.2738L17.002 82.669L18.002 84.3773L34.5011 74.9822L33.5011 73.2738ZM78.5946 67.9394L97.4581 79.9518L98.5431 78.2946L79.6795 66.2822L78.5946 67.9394ZM76.1578 34.8475L91.2281 23.3388L90.0041 21.779L74.9334 33.2878L76.1578 34.8475ZM65.3891 82.5122L71.3335 100.688L73.2369 100.082L67.2925 81.9066L65.3891 82.5122ZM34.6697 7.81468C34.6697 10.9337 32.1002 13.4656 28.9262 13.4656V15.4382C33.2009 15.4382 36.6697 12.027 36.6697 7.81468H34.6697ZM28.9262 13.4656C25.7523 13.4656 23.1828 10.9337 23.1828 7.81468H21.1828C21.1828 12.027 24.6516 15.4382 28.9262 15.4382V13.4656ZM23.1828 7.81468C23.1828 4.6957 25.7523 2.16376 28.9262 2.16376V0.191162C24.6516 0.191162 21.1828 3.60238 21.1828 7.81468H23.1828ZM28.9262 2.16376C32.1002 2.16376 34.6697 4.6957 34.6697 7.81468H36.6697C36.6697 3.60238 33.2009 0.191162 28.9262 0.191162V2.16376ZM31.256 13.875L40.0777 30.5101L41.8499 29.5959L33.0282 12.9608L31.256 13.875ZM17.992 87.7988C17.992 92.0754 14.4691 95.5452 10.1191 95.5452V97.5178C15.5698 97.5178 19.992 93.1682 19.992 87.7988H17.992ZM10.1191 95.5452C5.76911 95.5452 2.24622 92.0754 2.24622 87.7988H0.246216C0.246216 93.1682 4.66842 97.5178 10.1191 97.5178V95.5452ZM2.24622 87.7988C2.24622 83.5222 5.76911 80.0514 10.1191 80.0514V78.0791C4.66842 78.0791 0.246216 82.4284 0.246216 87.7988H2.24622ZM10.1191 80.0514C14.4691 80.0514 17.992 83.5222 17.992 87.7988H19.992C19.992 82.4284 15.5698 78.0791 10.1191 78.0791V80.0514ZM105.722 16.2129C105.722 20.4894 102.199 23.9598 97.8491 23.9598V25.9324C103.3 25.9324 107.722 21.5828 107.722 16.2129H105.722ZM97.8491 23.9598C93.4991 23.9598 89.9761 20.4894 89.9761 16.2129H87.9761C87.9761 21.5828 92.3981 25.9324 97.8491 25.9324V23.9598ZM89.9761 16.2129C89.9761 11.9363 93.4991 8.46593 97.8491 8.46593V6.49333C92.3981 6.49333 87.9761 10.843 87.9761 16.2129H89.9761ZM97.8491 8.46593C102.199 8.46593 105.722 11.9363 105.722 16.2129H107.722C107.722 10.843 103.3 6.49333 97.8491 6.49333V8.46593ZM107.624 81.2192C107.624 84.3388 105.054 86.8707 101.88 86.8707V88.8433C106.155 88.8433 109.624 85.4317 109.624 81.2192H107.624ZM101.88 86.8707C98.7071 86.8707 96.1371 84.3388 96.1371 81.2192H94.1371C94.1371 85.4317 97.6061 88.8433 101.88 88.8433V86.8707ZM96.1371 81.2192C96.1371 78.1006 98.7071 75.5687 101.88 75.5687V73.5961C97.6061 73.5961 94.1371 77.0073 94.1371 81.2192H96.1371ZM101.88 75.5687C105.054 75.5687 107.624 78.1006 107.624 81.2192H109.624C109.624 77.0073 106.155 73.5961 101.88 73.5961V75.5687ZM76.7265 104.926C76.7265 106.888 75.1104 108.482 73.1125 108.482V110.454C76.2111 110.454 78.7265 107.98 78.7265 104.926H76.7265ZM73.1125 108.482C71.1147 108.482 69.4986 106.888 69.4986 104.926H67.4986C67.4986 107.98 70.014 110.454 73.1125 110.454V108.482ZM69.4986 104.926C69.4986 102.965 71.1147 101.371 73.1125 101.371V99.3987C70.014 99.3987 67.4986 101.871 67.4986 104.926H69.4986ZM73.1125 101.371C75.1104 101.371 76.7265 102.965 76.7265 104.926H78.7265C78.7265 101.871 76.2111 99.3987 73.1125 99.3987V101.371Z" fill="#007EA7"/>
<path d="M29.3084 40.1024C31.1136 36.219 33.7184 33.8496 33.7184 33.8496C33.7184 33.8496 37.1839 31.227 38.9701 30.7232C41.0881 30.1258 43.5364 30.1251 44.5592 30.1251C45.4535 30.1251 48.1847 30.6283 50.383 31.7653C52.355 32.7853 53.9587 34.2288 54.4981 34.7419C55.094 34.1778 56.6897 32.7554 58.6039 31.7653C60.8021 30.6283 63.5333 30.1251 64.4276 30.1251C65.4504 30.1251 67.8988 30.1258 70.0168 30.7232C71.803 31.227 75.2686 33.8496 75.2686 33.8496C75.2686 33.8496 77.8734 36.219 79.6785 40.1024C81.6785 44.4047 81.4901 53.4605 81.4901 53.4605C81.2552 56.8099 80.8948 60.5631 79.6785 63.8819C77.8091 68.9828 75.2686 72.6457 75.2686 72.6457L71.5868 77.4295L69.3526 79.6706L66.5144 81.2191L62.5422 82.6285H60.4154L58.0604 81.7872L55.1015 79.6706H53.8853L50.9264 81.7872L48.5714 82.6285H46.4446L42.4724 81.2191L39.6343 79.6706L37.4001 77.4295L33.7184 72.6457C33.7184 72.6457 31.1778 68.9828 29.3084 63.8819C28.0921 60.5631 27.7318 56.8099 27.4968 53.4605C27.4968 53.4605 27.3084 44.4047 29.3084 40.1024Z" fill="#BA3B46"/>
<path d="M64.6774 18.0258L63.2982 17.6136L61.2059 19.2161L60.1435 20.1966L59.2415 21.1772L58.5805 22.0195L57.9786 22.9599L57.4574 23.9998L56.6085 25.9522L55.5131 30.2039L54.6998 34.0535L57.2369 28.0704L58.1791 25.9522L59.3617 23.9998L60.9468 22.0195L62.847 20L64.6774 18.0258Z" fill="#BA3B46"/>
<path d="M50.7504 21.5401C52.0533 23.7659 52.2128 26.0808 51.1068 26.7107C50.0007 27.3405 48.0478 26.0468 46.7449 23.821C45.442 21.5953 45.2825 19.2804 46.3886 18.6505C47.4947 18.0207 49.4476 19.3144 50.7504 21.5401Z" fill="#BA3B46"/>
<path d="M33.7184 33.8496L33.1096 33.0671L33.0737 33.0943L33.0404 33.1246L33.7184 33.8496ZM27.4968 53.4606L26.497 53.4808L26.4975 53.5047L26.4992 53.5286L27.4968 53.4606ZM42.4724 81.2191L41.9885 82.0821L42.0585 82.1206L42.1339 82.1472L42.4724 81.2191ZM46.4446 82.6285L46.106 83.5567L46.2702 83.6149H46.4446V82.6285ZM33.7184 72.6457L32.893 73.2026L32.9069 73.2227L32.9218 73.242L33.7184 72.6457ZM37.4001 77.4296L36.6035 78.0259L36.6422 78.0761L36.687 78.121L37.4001 77.4296ZM39.6343 79.6706L38.9213 80.362L39.0231 80.4646L39.1503 80.5336L39.6343 79.6706ZM50.9264 81.7872L51.267 82.7153L51.3995 82.668L51.5135 82.5861L50.9264 81.7872ZM53.8853 79.6706V78.6843H53.5609L53.2982 78.8727L53.8853 79.6706ZM48.5714 82.6285V83.6149H48.7469L48.9119 83.5567L48.5714 82.6285ZM75.2686 33.8496L75.9465 33.1246L75.9132 33.0943L75.8773 33.0671L75.2686 33.8496ZM81.4901 53.4606L82.4877 53.5286L82.4894 53.5047L82.4899 53.4808L81.4901 53.4606ZM66.5144 81.2191L66.853 82.1472L66.9283 82.1206L66.9984 82.0821L66.5144 81.2191ZM62.5422 82.6285V83.6149H62.7167L62.8808 83.5567L62.5422 82.6285ZM75.2686 72.6457L76.0651 73.242L76.08 73.2227L76.0939 73.2026L75.2686 72.6457ZM71.5868 77.4296L72.2999 78.121L72.3447 78.0761L72.3834 78.0259L71.5868 77.4296ZM69.3526 79.6706L69.8365 80.5336L69.9637 80.4646L70.0656 80.362L69.3526 79.6706ZM58.0604 81.7872L57.4733 82.5861L57.5874 82.668L57.7199 82.7153L58.0604 81.7872ZM55.1015 79.6706L55.6886 78.8727L55.4259 78.6843H55.1015V79.6706ZM60.4154 82.6285L60.0749 83.5567L60.2399 83.6149H60.4154V82.6285ZM52.1384 27.7609L52.4025 28.7122L52.8898 28.5806L53.0715 28.1157L52.1384 27.7609ZM44.6765 17.4518L44.4177 16.4991L43.6765 16.695V17.4518H44.6765ZM44.6765 18.5656H43.6765V18.5789L43.6769 18.5922L44.6765 18.5656ZM63.298 17.6136L63.588 16.6696L63.0931 16.5218L62.6847 16.8346L63.298 17.6136ZM64.6772 18.0258L65.4151 18.6914L66.4864 17.5359L64.9672 17.0818L64.6772 18.0258ZM57.2367 28.0704L56.321 27.6742L56.3175 27.682L56.3142 27.6899L57.2367 28.0704ZM54.6996 34.0535L53.7206 33.8523L55.6221 34.434L54.6996 34.0535ZM61.2057 19.2161L60.5924 18.4371L60.556 18.4649L60.5224 18.4959L61.2057 19.2161ZM55.5129 30.2039L54.5437 29.9609L54.5383 29.9817L54.5339 30.0027L55.5129 30.2039ZM56.6083 25.9522L55.6893 25.5635L55.6584 25.6344L55.6391 25.7093L56.6083 25.9522ZM62.8468 20L63.5798 20.671L63.5848 20.6655L62.8468 20ZM60.9466 22.0194L60.2136 21.3486L60.1864 21.3775L60.1617 21.4083L60.9466 22.0194ZM60.1433 20.1966L59.46 19.4765L59.4302 19.504L59.4027 19.5339L60.1433 20.1966ZM57.4572 23.9998L56.5608 23.5628L56.5488 23.5866L56.5382 23.611L57.4572 23.9998ZM57.9784 22.9599L57.1328 22.4334L57.105 22.4768L57.0819 22.5228L57.9784 22.9599ZM58.5803 22.0194L57.7894 21.4158L57.7602 21.4531L57.7346 21.4931L58.5803 22.0194ZM59.2413 21.1771L58.5007 20.5143L58.4744 20.5429L58.4505 20.5734L59.2413 21.1771ZM59.3615 23.9998L58.5766 23.3887L58.5364 23.4389L58.5031 23.494L59.3615 23.9998ZM58.1789 25.9522L57.3204 25.4463L57.2883 25.4994L57.2631 25.556L58.1789 25.9522ZM33.7184 33.8496C33.0404 33.1246 33.0404 33.1246 33.0404 33.1246L33.0386 33.1263L33.0358 33.1288C33.0336 33.1308 33.0308 33.1334 33.0274 33.1365C33.0206 33.1428 33.0113 33.1514 32.9996 33.1624C32.9764 33.1842 32.9437 33.2152 32.9024 33.2552C32.8198 33.3351 32.7028 33.451 32.5582 33.6012C32.269 33.9014 31.8683 34.3396 31.4104 34.9025C30.4963 36.0261 29.3445 37.658 28.3994 39.6913L30.2174 40.5135C31.0774 38.6634 32.1307 37.169 32.9703 36.1371C33.3892 35.6221 33.7525 35.2252 34.0082 34.9598C34.1359 34.8273 34.2365 34.7276 34.3034 34.6628C34.3369 34.6305 34.3619 34.6068 34.3777 34.592C34.3856 34.5846 34.3911 34.5795 34.3943 34.5765L34.3971 34.5739C34.3971 34.5739 34.3963 34.5747 33.7184 33.8496ZM28.3994 39.6913C27.3163 42.0212 26.858 45.523 26.6552 48.3246C26.552 49.7487 26.5125 51.0344 26.4987 51.9639C26.4918 52.4292 26.4914 52.8061 26.4926 53.0678C26.4933 53.1987 26.4944 53.3008 26.4953 53.3707C26.4957 53.4057 26.4962 53.4326 26.4965 53.4511C26.4966 53.4604 26.4968 53.4675 26.4969 53.4725L26.497 53.4783V53.4808C26.497 53.4808 26.497 53.4808 27.4968 53.4606C28.4966 53.4403 28.4966 53.4404 28.4966 53.4404L28.4965 53.4355C28.4964 53.4318 28.4963 53.4258 28.4962 53.4179C28.4959 53.4018 28.4955 53.3774 28.4951 53.345C28.4943 53.2802 28.4932 53.1835 28.4926 53.0583C28.4914 52.8079 28.4918 52.4439 28.4985 51.9928C28.5119 51.09 28.5503 49.8428 28.6501 48.4651C28.853 45.6633 29.3005 42.486 30.2174 40.5135L28.3994 39.6913ZM42.1339 82.1472L46.106 83.5567L46.7832 81.7004L42.811 80.291L42.1339 82.1472ZM44.5592 29.1389C43.549 29.1389 40.9663 29.1343 38.6951 29.7749L39.245 31.6715C41.2098 31.1174 43.5239 31.1115 44.5592 31.1115V29.1389ZM38.6951 29.7749C37.6286 30.0758 36.1911 30.9481 35.1186 31.6555C34.5595 32.0242 34.059 32.3758 33.6986 32.635C33.5181 32.7648 33.3721 32.8719 33.2707 32.947C33.2199 32.9845 33.1803 33.014 33.1531 33.0345C33.1394 33.0447 33.1289 33.0526 33.1216 33.0581C33.118 33.0608 33.1131 33.0644 33.1131 33.0644L33.1107 33.0663C33.1107 33.0663 33.1096 33.0671 33.7184 33.8496C34.3271 34.6322 34.327 34.6322 34.327 34.6322L34.3286 34.631C34.3286 34.631 34.3321 34.6283 34.3351 34.626C34.341 34.6216 34.3502 34.6148 34.3624 34.6056C34.3867 34.5874 34.4233 34.5601 34.4708 34.525C34.5659 34.4546 34.7046 34.3528 34.8769 34.2289C35.2221 33.9806 35.6997 33.6452 36.2302 33.2952C37.3371 32.5654 38.5254 31.8745 39.245 31.6715L38.6951 29.7749ZM54.6931 34.9318C55.411 34.2452 55.411 34.2452 55.411 34.2452L55.4089 34.2431L55.4052 34.2393C55.4022 34.2363 55.3981 34.2322 55.393 34.2271C55.3828 34.2168 55.3684 34.2024 55.3499 34.1843C55.3131 34.1481 55.2602 34.0965 55.1922 34.0319L53.804 35.4519C53.863 35.508 53.9076 35.5514 53.9365 35.5799C53.9509 35.5941 53.9615 35.6047 53.968 35.6112C53.9712 35.6144 53.9747 35.6179 53.9747 35.6179L53.9757 35.6189C53.9757 35.6189 53.9751 35.6184 54.6931 34.9318ZM55.1922 34.0319C54.6282 33.4955 52.9441 31.9764 50.8474 30.8919L49.9185 32.6388C51.7658 33.5943 53.2892 34.9623 53.804 35.4519L55.1922 34.0319ZM50.8474 30.8919C49.6592 30.2774 48.3481 29.8435 47.2283 29.563C46.1264 29.2868 45.1274 29.1389 44.5592 29.1389V31.1115C44.8853 31.1115 45.6991 31.215 46.7359 31.4748C47.7549 31.7302 48.9085 32.1164 49.9185 32.6388L50.8474 30.8919ZM26.4992 53.5286C26.734 56.8766 27.0991 60.755 28.3679 64.2172L30.2488 63.5466C29.0851 60.3712 28.7295 56.7433 28.4944 53.3925L26.4992 53.5286ZM28.3679 64.2172C29.3249 66.8285 30.4519 69.0674 31.3388 70.6531C31.7828 71.4468 32.1679 72.0793 32.4435 72.5154C32.5814 72.7336 32.692 72.9028 32.769 73.0187C32.8075 73.0767 32.8376 73.1214 32.8585 73.1522C32.869 73.1676 32.8772 73.1796 32.8829 73.188C32.8858 73.1922 32.8881 73.1956 32.8898 73.1979L32.8919 73.201L32.893 73.2026C32.893 73.2026 32.893 73.2026 33.7184 72.6457C34.5437 72.0888 34.5439 72.089 34.5439 72.089C34.5439 72.089 34.5411 72.085 34.5391 72.0821C34.5351 72.0764 34.5288 72.0671 34.5202 72.0545C34.503 72.0292 34.4767 71.9901 34.4421 71.938C34.3729 71.8337 34.2704 71.677 34.1408 71.472C33.8817 71.0619 33.5149 70.4599 33.09 69.7002C32.2393 68.1792 31.1612 66.0362 30.2488 63.5466L28.3679 64.2172ZM32.9218 73.242L36.6035 78.0259L38.1966 76.8332L34.5149 72.0494L32.9218 73.242ZM36.687 78.121L38.9213 80.362L40.3474 78.9792L38.1131 76.7381L36.687 78.121ZM39.1503 80.5336L41.9885 82.0821L42.9564 80.3561L40.1183 78.8076L39.1503 80.5336ZM51.5135 82.5861L54.4724 80.4695L53.2982 78.8727L50.3393 80.9893L51.5135 82.5861ZM46.4446 83.6149H48.5714V81.6423H46.4446V83.6149ZM48.9119 83.5567L51.267 82.7153L50.5859 80.8601L48.2308 81.7014L48.9119 83.5567ZM75.2686 33.8496C74.5906 34.5747 74.5903 34.5744 74.5903 34.5744L74.5927 34.5765C74.5958 34.5795 74.6014 34.5846 74.6092 34.592C74.625 34.6068 74.65 34.6305 74.6835 34.6628C74.7504 34.7276 74.851 34.8273 74.9788 34.9598C75.2344 35.2252 75.5977 35.6221 76.0167 36.1371C76.8562 37.169 77.9095 38.6634 78.7695 40.5135L80.5876 39.6913C79.6424 37.658 78.4907 36.0261 77.5765 34.9025C77.1186 34.3396 76.7179 33.9014 76.4288 33.6012C76.2841 33.451 76.1671 33.3351 76.0845 33.2552C76.0432 33.2152 76.0105 33.1842 75.9873 33.1624C75.9756 33.1514 75.9663 33.1428 75.9595 33.1365C75.9561 33.1334 75.9533 33.1308 75.9511 33.1288L75.9483 33.1263L75.9465 33.1246C75.9465 33.1246 75.9465 33.1246 75.2686 33.8496ZM78.7695 40.5135C79.6865 42.486 80.134 45.6633 80.3369 48.4651C80.4366 49.8428 80.475 51.09 80.4884 51.9928C80.4951 52.4439 80.4955 52.8079 80.4943 53.0583C80.4937 53.1835 80.4927 53.2802 80.4918 53.345C80.4914 53.3774 80.491 53.4018 80.4907 53.4179C80.4906 53.4258 80.4905 53.4318 80.4904 53.4355V53.4396C80.4904 53.4396 80.4903 53.4403 81.4901 53.4606C82.4899 53.4808 82.4899 53.4808 82.4899 53.4808L82.49 53.4783L82.4901 53.4725C82.4902 53.4675 82.4903 53.4604 82.4905 53.4511C82.4908 53.4326 82.4912 53.4057 82.4917 53.3707C82.4926 53.3008 82.4937 53.1987 82.4943 53.0678C82.4956 52.8061 82.4951 52.4292 82.4882 51.9639C82.4744 51.0344 82.4349 49.7487 82.3318 48.3246C82.1289 45.523 81.6706 42.0212 80.5876 39.6913L78.7695 40.5135ZM66.1758 80.291L62.2037 81.7004L62.8808 83.5567L66.853 82.1472L66.1758 80.291ZM64.4276 31.1115C65.463 31.1115 67.7771 31.1174 69.7418 31.6715L70.2918 29.7749C68.0206 29.1343 65.4379 29.1389 64.4276 29.1389V31.1115ZM69.7418 31.6715C70.4615 31.8745 71.6498 32.5654 72.7567 33.2952C73.2872 33.6452 73.7648 33.9806 74.11 34.2289C74.2823 34.3528 74.421 34.4546 74.5161 34.525C74.5636 34.5601 74.6002 34.5874 74.6246 34.6056C74.6367 34.6148 74.6459 34.6216 74.6518 34.626C74.6548 34.6283 74.6583 34.631 74.6583 34.631L74.6597 34.6321C74.6597 34.6321 74.6598 34.6322 75.2686 33.8496C75.8773 33.0671 75.8773 33.0671 75.8773 33.0671L75.8762 33.0663L75.8738 33.0644C75.8738 33.0644 75.8689 33.0608 75.8653 33.0581C75.858 33.0526 75.8475 33.0447 75.8338 33.0345C75.8066 33.014 75.767 32.9845 75.7162 32.947C75.6148 32.8719 75.4688 32.7648 75.2883 32.635C74.9279 32.3758 74.4274 32.0242 73.8683 31.6555C72.7958 30.9481 71.3583 30.0758 70.2918 29.7749L69.7418 31.6715ZM54.2475 34.9857C54.9667 35.6709 54.9667 35.671 54.9667 35.671L54.9679 35.6698C54.9679 35.6698 54.9726 35.6649 54.977 35.6606C54.9857 35.6518 54.9997 35.6379 55.0186 35.6193C55.0566 35.5819 55.1144 35.5256 55.1906 35.4535L53.8057 34.0303C53.7194 34.112 53.6519 34.1776 53.6052 34.2236C53.5818 34.2467 53.5636 34.2649 53.5507 34.2778C53.5442 34.2842 53.5392 34.2894 53.5354 34.2932L53.5309 34.2978L53.5293 34.2993L53.5284 34.3003C53.5284 34.3003 53.5284 34.3004 54.2475 34.9857ZM55.1906 35.4535C55.7627 34.9119 57.2783 33.5647 59.0683 32.6388L58.1394 30.8919C56.101 31.9463 54.4252 33.4439 53.8057 34.0303L55.1906 35.4535ZM59.0683 32.6388C60.0783 32.1164 61.2319 31.7302 62.2509 31.4748C63.2877 31.215 64.1015 31.1115 64.4276 31.1115V29.1389C63.8594 29.1389 62.8605 29.2868 61.7585 29.563C60.6388 29.8435 59.3277 30.2774 58.1394 30.8919L59.0683 32.6388ZM80.4925 53.3925C80.2575 56.7433 79.9018 60.3712 78.7381 63.5466L80.619 64.2172C81.8878 60.755 82.2529 56.8766 82.4877 53.5286L80.4925 53.3925ZM78.7381 63.5466C77.8257 66.0362 76.7477 68.1792 75.8969 69.7002C75.4721 70.4599 75.1052 71.0619 74.8461 71.472C74.7166 71.677 74.6141 71.8337 74.5448 71.938C74.5102 71.9901 74.4839 72.0292 74.4667 72.0545C74.4581 72.0671 74.4518 72.0764 74.4478 72.0821C74.4459 72.085 74.4437 72.0881 74.4437 72.0881C74.4437 72.0881 74.4432 72.0888 75.2686 72.6457C76.0939 73.2026 76.0939 73.2026 76.0939 73.2026L76.095 73.201L76.0971 73.1979C76.0988 73.1956 76.1011 73.1922 76.104 73.188C76.1098 73.1796 76.1179 73.1676 76.1284 73.1522C76.1493 73.1214 76.1794 73.0767 76.2179 73.0187C76.2949 72.9028 76.4055 72.7336 76.5434 72.5154C76.819 72.0793 77.2042 71.4468 77.6481 70.6531C78.535 69.0674 79.662 66.8285 80.619 64.2172L78.7381 63.5466ZM74.472 72.0494L70.7903 76.8332L72.3834 78.0259L76.0651 73.242L74.472 72.0494ZM70.8738 76.7381L68.6395 78.9792L70.0656 80.362L72.2999 78.121L70.8738 76.7381ZM68.8686 78.8076L66.0304 80.3561L66.9984 82.0821L69.8365 80.5336L68.8686 78.8076ZM58.6475 80.9893L55.6886 78.8727L54.5144 80.4695L57.4733 82.5861L58.6475 80.9893ZM62.5422 81.6423H60.4154V83.6149H62.5422V81.6423ZM60.756 81.7014L58.4009 80.8601L57.7199 82.7153L60.0749 83.5567L60.756 81.7014ZM53.0715 28.1157C53.164 27.879 53.3535 27.3109 53.4725 26.6122C53.5897 25.9249 53.6553 25.0189 53.4209 24.1563L51.4891 24.6669C51.617 25.1376 51.5961 25.7228 51.5002 26.2851C51.4063 26.836 51.2563 27.2758 51.2054 27.4061L53.0715 28.1157ZM53.4209 24.1563C53.199 23.3395 53.0619 22.831 52.8801 22.3497C52.6949 21.8592 52.4693 21.4117 52.0943 20.6965L50.3178 21.6027C50.6956 22.3233 50.8681 22.6734 51.0059 23.0382C51.1472 23.4122 51.2582 23.8168 51.4891 24.6669L53.4209 24.1563ZM46.8885 16.4857C46.1455 16.3352 45.6178 16.298 45.1969 16.3335C44.788 16.368 44.4484 16.4909 44.4177 16.4991L44.9353 18.4045C45.2162 18.3303 45.1932 18.3136 45.3673 18.2989C45.5295 18.2853 45.8514 18.2893 46.486 18.418L46.8885 16.4857ZM48.9024 17.2438C48.5835 17.0788 48.2987 16.9176 48.0161 16.8007C47.6974 16.669 47.3713 16.5835 46.8885 16.4857L46.486 18.418C46.9245 18.5068 47.1023 18.5619 47.2428 18.62C47.4194 18.6929 47.5491 18.7711 47.9732 18.9905L48.9024 17.2438ZM52.0943 20.6965C51.8636 20.2565 51.2935 19.4532 51.0293 19.1463L49.5046 20.4229C49.6894 20.6375 50.1685 21.318 50.3178 21.6027L52.0943 20.6965ZM51.0293 19.1463C50.4149 18.4325 49.7028 17.6579 48.9024 17.2438L47.9732 18.9905C48.3815 19.2019 48.8642 19.6789 49.5046 20.4229L51.0293 19.1463ZM51.8744 26.8096C51.9452 26.7905 51.9487 26.8025 51.8101 26.801C51.699 26.7997 51.547 26.7908 51.3578 26.7728C50.9812 26.737 50.5078 26.6702 50.0168 26.5848L49.6693 28.5275C50.1948 28.6189 50.7224 28.6941 51.1659 28.7364C51.3868 28.7574 51.5997 28.7714 51.7876 28.7734C51.9481 28.7752 52.1849 28.771 52.4025 28.7122L51.8744 26.8096ZM50.0168 26.5848C49.1059 26.4263 48.502 26.0459 47.6354 25.0855L46.1413 26.3967C47.186 27.5547 48.1639 28.2655 49.6693 28.5275L50.0168 26.5848ZM45.8177 20.7653C45.6944 19.8336 45.7006 19.4306 45.6761 18.539L43.6769 18.5922C43.7006 19.46 43.6955 19.9693 43.8345 21.0205L45.8177 20.7653ZM47.6354 25.0855L47.6343 25.0843L47.6313 25.0807C47.6287 25.0777 47.6252 25.0733 47.6206 25.0677C47.6115 25.0565 47.5999 25.0415 47.5857 25.0226C47.5572 24.9845 47.5229 24.9362 47.4837 24.8786C47.4051 24.7632 47.3161 24.6238 47.2275 24.4784C47.0402 24.1706 46.8955 23.9024 46.8529 23.8031L45.0108 24.5713C45.1124 24.8082 45.3207 25.1781 45.5129 25.4938C45.6985 25.7988 45.9454 26.1796 46.1413 26.3967L47.6354 25.0855ZM46.8529 23.8031C46.658 23.3482 46.4167 22.747 46.2127 22.1669C46.0013 21.5653 45.8567 21.0598 45.8177 20.7653L43.8345 21.0205C43.9023 21.5325 44.109 22.2041 44.3231 22.813C44.5446 23.4433 44.8028 24.0859 45.0108 24.5713L46.8529 23.8031ZM63.008 18.5575L64.3872 18.9697L64.9672 17.0818L63.588 16.6696L63.008 18.5575ZM56.3142 27.6899L53.777 33.6729L55.6221 34.434L58.1593 28.451L56.3142 27.6899ZM61.819 19.9951L63.9114 18.3926L62.6847 16.8346L60.5924 18.4371L61.819 19.9951ZM55.6786 34.2546L56.4918 30.405L54.5339 30.0027L53.7206 33.8523L55.6786 34.2546ZM56.482 30.4468L57.5775 26.1951L55.6391 25.7093L54.5437 29.9609L56.482 30.4468ZM63.9392 17.3602L62.1089 19.3344L63.5848 20.6655L65.4151 18.6914L63.9392 17.3602ZM62.1139 19.329L60.2136 21.3486L61.6796 22.6904L63.5798 20.671L62.1139 19.329ZM60.8266 20.9168L61.889 19.9363L60.5224 18.4959L59.46 19.4765L60.8266 20.9168ZM57.5273 26.3409L58.3763 24.3885L56.5382 23.611L55.6893 25.5635L57.5273 26.3409ZM58.3537 24.4369L58.8749 23.3969L57.0819 22.5228L56.5608 23.5628L58.3537 24.4369ZM58.824 23.4864L59.4259 22.5459L57.7346 21.4931L57.1328 22.4334L58.824 23.4864ZM59.3711 22.6232L60.0321 21.7808L58.4505 20.5734L57.7894 21.4158L59.3711 22.6232ZM59.9818 21.8398L60.8839 20.8594L59.4027 19.5339L58.5007 20.5143L59.9818 21.8398ZM60.1617 21.4083L58.5766 23.3887L60.1464 24.6109L61.7315 22.6307L60.1617 21.4083ZM58.5031 23.494L57.3204 25.4463L59.0373 26.4581L60.22 24.5057L58.5031 23.494ZM57.2631 25.556L56.321 27.6742L58.1525 28.4667L59.0946 26.3484L57.2631 25.556ZM49.8842 22.0333C50.4762 23.0446 50.782 24.0351 50.8341 24.7908C50.8911 25.6182 50.6458 25.8342 50.6066 25.8565L51.6066 27.5648C52.6734 26.9573 52.9014 25.7008 52.8295 24.6569C52.7526 23.5412 52.3271 22.2614 51.6163 21.0469L49.8842 22.0333ZM50.6066 25.8565C50.5673 25.8788 50.2551 25.9804 49.557 25.518C48.9196 25.0957 48.2028 24.3392 47.6107 23.3279L45.8787 24.3142C46.5896 25.5286 47.5006 26.5319 48.4419 27.1554C49.3225 27.7388 50.5397 28.1723 51.6066 27.5648L50.6066 25.8565ZM47.6107 23.3279C47.0187 22.3165 46.713 21.326 46.6609 20.5705C46.6039 19.743 46.8492 19.527 46.8884 19.5047L45.8884 17.7964C44.8215 18.4039 44.5936 19.6603 44.6655 20.7042C44.7424 21.82 45.1678 23.0997 45.8787 24.3142L47.6107 23.3279ZM46.8884 19.5047C46.9276 19.4824 47.2399 19.3808 47.9379 19.8433C48.5753 20.2655 49.2922 21.0219 49.8842 22.0333L51.6163 21.0469C50.9054 19.8326 49.9944 18.8293 49.0531 18.2057C48.1725 17.6223 46.9553 17.1888 45.8884 17.7964L46.8884 19.5047ZM45.6765 18.5656V17.4518H43.6765V18.5656H45.6765ZM53.8853 80.6569H55.1015V78.6843H53.8853V80.6569Z" fill="#BA3B46"/>
<path d="M140.284 59.584C142.156 59.584 143.8 59.344 145.216 58.864C146.656 58.384 147.844 57.712 148.78 56.848C149.74 55.96 150.46 54.892 150.94 53.644C151.42 52.396 151.66 51.004 151.66 49.468C151.66 47.956 151.42 46.6 150.94 45.4C150.484 44.2 149.788 43.18 148.852 42.34C147.916 41.5 146.728 40.864 145.288 40.432C143.872 39.976 142.204 39.748 140.284 39.748H132.58V59.584H140.284ZM140.284 33.16C143.668 33.16 146.596 33.556 149.068 34.348C151.564 35.14 153.616 36.256 155.224 37.696C156.856 39.112 158.068 40.828 158.86 42.844C159.652 44.836 160.048 47.044 160.048 49.468C160.048 51.94 159.628 54.208 158.788 56.272C157.948 58.312 156.7 60.076 155.044 61.564C153.388 63.028 151.324 64.18 148.852 65.02C146.404 65.836 143.548 66.244 140.284 66.244H132.58V85H124.156V33.16H140.284Z" fill="black"/>
<path d="M172.617 55.084C173.769 52.756 175.161 50.932 176.793 49.612C178.425 48.268 180.381 47.596 182.661 47.596C183.453 47.596 184.197 47.692 184.893 47.884C185.589 48.052 186.213 48.316 186.765 48.676L186.225 54.508C186.129 54.916 185.973 55.204 185.757 55.372C185.565 55.516 185.301 55.588 184.965 55.588C184.605 55.588 184.089 55.528 183.417 55.408C182.745 55.264 182.037 55.192 181.293 55.192C180.213 55.192 179.253 55.348 178.413 55.66C177.597 55.972 176.853 56.428 176.181 57.028C175.533 57.628 174.957 58.36 174.453 59.224C173.949 60.088 173.481 61.072 173.049 62.176V85H165.309V48.28H169.809C170.625 48.28 171.189 48.436 171.501 48.748C171.813 49.036 172.029 49.552 172.149 50.296L172.617 55.084Z" fill="black"/>
<path d="M213.985 62.5C213.985 61.204 213.793 60.004 213.409 58.9C213.049 57.772 212.509 56.8 211.789 55.984C211.069 55.144 210.169 54.496 209.089 54.04C208.033 53.56 206.809 53.32 205.417 53.32C202.609 53.32 200.401 54.124 198.793 55.732C197.185 57.34 196.165 59.596 195.733 62.5H213.985ZM195.517 67.252C195.613 69.34 195.937 71.152 196.489 72.688C197.041 74.2 197.773 75.46 198.685 76.468C199.621 77.476 200.725 78.232 201.997 78.736C203.293 79.216 204.733 79.456 206.317 79.456C207.829 79.456 209.137 79.288 210.241 78.952C211.345 78.592 212.305 78.208 213.121 77.8C213.937 77.368 214.633 76.984 215.209 76.648C215.785 76.288 216.313 76.108 216.793 76.108C217.417 76.108 217.897 76.348 218.233 76.828L220.429 79.672C219.517 80.752 218.485 81.664 217.333 82.408C216.181 83.152 214.957 83.764 213.661 84.244C212.365 84.7 211.033 85.024 209.665 85.216C208.297 85.432 206.965 85.54 205.669 85.54C203.125 85.54 200.761 85.12 198.577 84.28C196.417 83.416 194.533 82.156 192.925 80.5C191.341 78.844 190.093 76.792 189.181 74.344C188.293 71.896 187.849 69.076 187.849 65.884C187.849 63.34 188.245 60.964 189.037 58.756C189.853 56.548 191.005 54.628 192.493 52.996C194.005 51.364 195.829 50.08 197.965 49.144C200.125 48.184 202.561 47.704 205.273 47.704C207.529 47.704 209.617 48.076 211.537 48.82C213.457 49.54 215.113 50.608 216.505 52.024C217.897 53.44 218.977 55.18 219.745 57.244C220.537 59.284 220.933 61.612 220.933 64.228C220.933 65.428 220.801 66.232 220.537 66.64C220.273 67.048 219.793 67.252 219.097 67.252H195.517Z" fill="black"/>
<path d="M235.171 75.784C236.251 77.176 237.427 78.16 238.699 78.736C239.995 79.288 241.423 79.564 242.983 79.564C246.007 79.564 248.359 78.46 250.039 76.252C251.743 74.044 252.595 70.756 252.595 66.388C252.595 64.132 252.403 62.212 252.019 60.628C251.635 59.02 251.083 57.712 250.363 56.704C249.643 55.696 248.767 54.964 247.735 54.508C246.703 54.052 245.539 53.824 244.243 53.824C242.275 53.824 240.571 54.256 239.131 55.12C237.715 55.96 236.395 57.172 235.171 58.756V75.784ZM234.775 53.608C236.311 51.808 238.051 50.356 239.995 49.252C241.963 48.148 244.243 47.596 246.835 47.596C248.899 47.596 250.771 48.016 252.451 48.856C254.131 49.672 255.571 50.872 256.771 52.456C257.971 54.04 258.895 56.008 259.543 58.36C260.215 60.688 260.551 63.364 260.551 66.388C260.551 69.1 260.179 71.632 259.435 73.984C258.715 76.312 257.671 78.34 256.303 80.068C254.935 81.772 253.279 83.116 251.335 84.1C249.391 85.06 247.195 85.54 244.747 85.54C242.587 85.54 240.751 85.192 239.239 84.496C237.751 83.8 236.395 82.84 235.171 81.616V97.204H227.431V48.28H232.111C233.167 48.28 233.839 48.772 234.127 49.756L234.775 53.608Z" fill="black"/>
<path d="M310.649 33.16V85H302.225V61.924H276.197V85H267.737V33.16H276.197V55.84H302.225V33.16H310.649Z" fill="black"/>
<path d="M351.099 48.28V85H346.419C345.387 85 344.727 84.508 344.439 83.524L343.863 80.104C343.095 80.92 342.279 81.664 341.415 82.336C340.575 83.008 339.675 83.584 338.715 84.064C337.755 84.544 336.723 84.916 335.619 85.18C334.539 85.444 333.375 85.576 332.127 85.576C330.111 85.576 328.335 85.24 326.799 84.568C325.263 83.896 323.967 82.948 322.911 81.724C321.879 80.5 321.099 79.036 320.571 77.332C320.043 75.604 319.779 73.708 319.779 71.644V48.28H327.519V71.644C327.519 74.116 328.083 76.036 329.211 77.404C330.363 78.772 332.103 79.456 334.431 79.456C336.135 79.456 337.719 79.072 339.183 78.304C340.671 77.512 342.063 76.432 343.359 75.064V48.28H351.099Z" fill="black"/>
<path d="M367.519 75.784C368.599 77.176 369.775 78.16 371.047 78.736C372.343 79.288 373.747 79.564 375.259 79.564C378.307 79.564 380.683 78.46 382.387 76.252C384.091 74.044 384.943 70.624 384.943 65.992C384.943 61.768 384.199 58.684 382.711 56.74C381.247 54.796 379.147 53.824 376.411 53.824C374.515 53.824 372.859 54.256 371.443 55.12C370.051 55.96 368.743 57.172 367.519 58.756V75.784ZM367.519 53.14C369.031 51.484 370.723 50.164 372.595 49.18C374.467 48.196 376.603 47.704 379.003 47.704C381.139 47.704 383.059 48.124 384.763 48.964C386.491 49.78 387.955 50.968 389.155 52.528C390.355 54.088 391.279 55.984 391.927 58.216C392.575 60.424 392.899 62.92 392.899 65.704C392.899 68.68 392.527 71.392 391.783 73.84C391.063 76.264 390.019 78.352 388.651 80.104C387.283 81.832 385.627 83.176 383.683 84.136C381.739 85.072 379.567 85.54 377.167 85.54C375.991 85.54 374.923 85.42 373.963 85.18C373.003 84.964 372.115 84.64 371.299 84.208C370.483 83.776 369.727 83.26 369.031 82.66C368.359 82.06 367.711 81.376 367.087 80.608L366.763 83.452C366.643 84.004 366.427 84.4 366.115 84.64C365.803 84.88 365.371 85 364.819 85H359.779V31.72H367.519V53.14Z" fill="black"/>
</svg>
